<svg width="47" height="83" viewBox="0 0 47 83" fill="none" xmlns="http://www.w3.org/2000/svg">
<path d="M0 41.2113C0 29.7032 0 18.1952 0 6.68714C0 2.53003 2.53409 0 6.69982 0C17.9007 0 29.1016 0 40.3024 0C44.4704 0 46.9977 2.52556 47 6.68937C47 29.7345 47 52.7796 47 75.8225C47 79.926 44.4547 82.4672 40.3429 82.4672C29.1151 82.4672 17.8849 82.4672 6.65706 82.4672C2.5521 82.4672 0.00225053 79.9193 0.00225053 75.8181C0.00225053 64.281 0.00225053 52.7461 0.00225053 41.209L0 41.2113ZM45.0871 66.5048V11.7338H44.0248C34.7031 11.7338 25.3837 11.7338 16.062 11.7338C15.7807 11.7338 15.4274 11.8299 15.2361 11.7003C14.8827 11.4589 14.4551 11.1214 14.3674 10.7504C14.2391 10.1983 14.6667 9.82508 15.2428 9.74015C15.5174 9.69992 15.8032 9.72451 16.0845 9.72451C25.4332 9.72451 34.7819 9.72451 44.1328 9.72451H45.1501C45.1501 8.63159 45.1501 7.65713 45.1501 6.68267C45.1501 3.69223 43.4644 2.01374 40.4622 2.01374C29.2051 2.01374 17.9457 2.01374 6.68857 2.01374C6.49277 2.01374 6.29472 2.00927 6.09893 2.01821C4.19498 2.08973 2.46883 3.35474 2.18976 5.2165C1.97146 6.67596 2.147 8.19129 2.147 9.72451C4.08246 9.72451 6.01566 9.73345 7.95111 9.72004C8.65553 9.71557 9.18665 9.92342 9.25417 10.7012C9.31043 11.3494 8.80406 11.7248 7.92411 11.7338C7.05315 11.7405 6.18445 11.7338 5.31349 11.7338C4.23099 11.7338 3.14849 11.7338 2.06823 11.7338V66.5071H45.0938L45.0871 66.5048ZM45.1321 68.6169H2.02097C2.02097 71.0195 2.02097 73.3641 2.02097 75.7063C2.02097 78.8063 3.67961 80.458 6.79434 80.458C17.993 80.458 29.1916 80.458 40.3902 80.458C40.6715 80.458 40.9528 80.4647 41.2319 80.4468C43.2664 80.306 45.042 78.6901 45.1118 76.6987C45.2041 74.0256 45.1343 71.3458 45.1343 68.6169H45.1321Z" fill="url(#paint0_linear_2008_32409)"/>
<path d="M23.6103 15.0859C28.6627 15.0859 33.7151 15.0859 38.7676 15.0859C39.9693 15.0859 40.2597 15.372 40.2597 16.5588C40.2597 25.7491 40.2597 34.9373 40.2597 44.1276C40.2597 45.3054 39.9648 45.5915 38.7586 45.5915C28.6537 45.5915 18.5466 45.5915 8.44172 45.5915C7.18593 45.5915 6.90686 45.3166 6.90686 44.0762C6.90686 34.9149 6.90686 25.7536 6.90686 16.5923C6.90686 15.3564 7.18367 15.0859 8.45072 15.0859C13.5032 15.0859 18.5556 15.0859 23.608 15.0859H23.6103ZM22.0912 30.3399C17.6891 26.3459 13.3861 22.4391 8.99985 18.4608V42.2234C13.4041 38.2249 17.7116 34.3159 22.0912 30.3399ZM38.2139 18.4273C33.7827 22.448 29.4594 26.3705 25.0844 30.3399C29.4774 34.3249 33.7917 38.2406 38.2139 42.2524V18.425V18.4273ZM10.5662 17.1354C15.0043 21.1607 19.287 25.0451 23.5923 28.9519C27.947 24.9982 32.2185 21.1205 36.6048 17.1354H10.5662ZM23.5878 31.7256C19.224 35.6882 14.9547 39.5637 10.5797 43.5376H36.6026C32.2028 39.5436 27.9268 35.6636 23.5878 31.7256Z" fill="url(#paint1_linear_2008_32409)"/>
<path d="M23.5 56.6574C18.5871 56.6574 13.6742 56.6574 8.76129 56.6574C8.48223 56.6574 8.12214 56.7423 7.93985 56.6038C7.61577 56.3602 7.19717 55.978 7.19717 55.6517C7.19717 55.3276 7.61802 54.9432 7.93985 54.6996C8.12439 54.561 8.48222 54.6481 8.76354 54.6481C18.6456 54.6481 28.5277 54.6481 38.4097 54.6481C38.6348 54.6481 38.8621 54.6325 39.0826 54.6593C39.6678 54.7286 40.0189 55.0773 40.0189 55.6539C40.0189 56.2283 39.6655 56.5792 39.0826 56.6485C38.8328 56.6775 38.5785 56.6597 38.3242 56.6597C33.3821 56.6597 28.4421 56.6597 23.5 56.6597V56.6574Z" fill="url(#paint2_linear_2008_32409)"/>
<path d="M23.5315 61.686C18.6186 61.686 13.7057 61.686 8.7928 61.686C8.51149 61.686 8.15816 61.7754 7.96911 61.6413C7.63828 61.4066 7.17693 61.0132 7.19943 60.7182C7.22419 60.3606 7.65854 59.9896 7.99162 59.7169C8.14465 59.5918 8.47998 59.6789 8.73204 59.6789C18.6434 59.6789 28.5524 59.6789 38.4638 59.6789C38.6888 59.6789 38.9814 59.5985 39.1232 59.708C39.4652 59.974 39.9108 60.2936 39.9919 60.6601C40.1111 61.201 39.697 61.5899 39.1142 61.6726C38.8666 61.7083 38.61 61.6882 38.358 61.6882C33.4158 61.6882 28.4759 61.6882 23.5338 61.6882L23.5315 61.686Z" fill="url(#paint3_linear_2008_32409)"/>
<path d="M15.8347 51.4608C13.3951 51.4608 10.9578 51.463 8.51825 51.4608C7.62929 51.4608 7.14542 51.1054 7.13867 50.4684C7.12967 49.827 7.61578 49.4538 8.49349 49.4538C13.3996 49.4493 18.3058 49.4515 23.2119 49.4538C24.1301 49.4538 24.578 49.7868 24.587 50.4439C24.596 51.092 24.1211 51.4586 23.2367 51.4608C20.7701 51.4653 18.3035 51.4608 15.8347 51.4608Z" fill="url(#paint4_linear_2008_32409)"/>
<path d="M23.5878 77.7424C21.5353 77.7602 19.7619 76.0102 19.7551 73.9607C19.7506 71.8889 21.443 70.1724 23.5337 70.1277C25.6245 70.0852 27.4159 71.8509 27.4046 73.9473C27.3956 76.0125 25.6717 77.7245 23.5855 77.7401L23.5878 77.7424ZM25.3882 73.9451C25.3972 72.9975 24.5937 72.1727 23.6373 72.1437C22.6515 72.1146 21.7918 72.9393 21.7828 73.925C21.7738 74.8659 22.5795 75.6973 23.5337 75.7309C24.5037 75.7644 25.3814 74.9218 25.3904 73.9451H25.3882Z" fill="url(#paint5_linear_2008_32409)"/>
<defs>
<linearGradient id="paint0_linear_2008_32409" x1="35.25" y1="1.66543e-06" x2="-39.0926" y2="60.6509" gradientUnits="userSpaceOnUse">
<stop offset="0.445833" stop-color="#0A7CFF"/>
<stop offset="1" stop-color="white"/>
</linearGradient>
<linearGradient id="paint1_linear_2008_32409" x1="31.9215" y1="15.0859" x2="6.44817" y2="54.9536" gradientUnits="userSpaceOnUse">
<stop offset="0.445833" stop-color="#0A7CFF"/>
<stop offset="1" stop-color="white"/>
</linearGradient>
<linearGradient id="paint2_linear_2008_32409" x1="31.8134" y1="54.6211" x2="31.6472" y2="58.4089" gradientUnits="userSpaceOnUse">
<stop offset="0.445833" stop-color="#0A7CFF"/>
<stop offset="1" stop-color="white"/>
</linearGradient>
<linearGradient id="paint3_linear_2008_32409" x1="31.809" y1="59.6494" x2="31.6421" y2="63.444" gradientUnits="userSpaceOnUse">
<stop offset="0.445833" stop-color="#0A7CFF"/>
<stop offset="1" stop-color="white"/>
</linearGradient>
<linearGradient id="paint4_linear_2008_32409" x1="20.225" y1="49.4512" x2="19.9287" y2="53.1295" gradientUnits="userSpaceOnUse">
<stop offset="0.445833" stop-color="#0A7CFF"/>
<stop offset="1" stop-color="white"/>
</linearGradient>
<linearGradient id="paint5_linear_2008_32409" x1="25.4923" y1="70.127" x2="18.9223" y2="79.5737" gradientUnits="userSpaceOnUse">
<stop offset="0.445833" stop-color="#0A7CFF"/>
<stop offset="1" stop-color="white"/>
</linearGradient>
</defs>
</svg>
