<svg width="82" height="70" viewBox="0 0 82 70" fill="none" xmlns="http://www.w3.org/2000/svg">
<path d="M82.0008 6.82165V63.1784C81.958 63.2802 81.8939 63.3753 81.8725 63.4816C81.0487 67.533 78.2203 69.9728 74.3028 69.9977C72.8885 70.0068 71.4743 69.9977 70.0579 69.9977C49.3194 69.9977 28.5808 70 7.84011 69.9977C3.26792 69.9977 0.00939751 66.6661 0.00511843 61.9471C-0.00343973 43.9786 -0.00343973 26.0146 0.0222347 8.05063C0.0222347 7.13399 0.172003 6.18113 0.443724 5.31202C1.48782 1.97135 4.27564 0 7.84439 0C29.9437 0 52.0451 0 74.1444 0C74.3584 0 74.5724 0 74.7842 0.00905329C77.7346 0.169749 79.8891 1.66354 81.2178 4.43611C81.5729 5.17848 81.7441 6.02044 81.9987 6.81712L82.0008 6.82165ZM14.6417 66.562C14.6417 63.1919 14.6417 59.9124 14.6417 56.6328C14.6417 54.0594 14.6246 51.4838 14.6481 48.9104C14.6717 46.3958 16.1629 44.8409 18.5164 44.8341C20.2516 44.8296 21.9867 44.8319 23.7198 44.8341C26.2894 44.8364 27.725 46.3574 27.7271 49.0914C27.7314 54.58 27.7271 60.0663 27.7271 65.5548C27.7271 65.883 27.7271 66.2112 27.7271 66.5575H32.5218C32.5218 66.2067 32.5218 65.9034 32.5218 65.6001C32.5218 62.7144 32.5176 59.8286 32.5261 56.9452C32.5261 56.5242 32.5539 56.0964 32.6181 55.6822C32.8385 54.2496 33.6815 53.2673 34.8047 52.4955C33.4333 49.0009 32.0832 45.5607 30.7332 42.1227C29.4987 38.9789 29.9287 36.9125 32.2351 34.5632C35.1107 31.6344 37.8172 28.5586 39.6016 24.7087C39.8819 24.1044 40.3611 23.7807 41.0158 23.7807C41.7026 23.7807 42.1583 24.1315 42.4878 24.754C43.0377 25.786 43.4998 26.9064 44.208 27.8004C46.1421 30.2425 48.1383 32.6371 50.2009 34.9593C51.8975 36.8695 52.4217 39.1374 51.4931 41.5795C51.016 42.8356 50.5154 44.085 50.0276 45.3366C49.0969 47.7335 48.1683 50.1303 47.2269 52.5498C48.9728 53.6498 49.5333 55.2929 49.4927 57.3164C49.4349 60.0867 49.4777 62.8592 49.4777 65.6318V66.5371H53.9643C53.9643 66.1614 53.9643 65.8536 53.9643 65.5435C53.9643 61.4695 53.9215 57.3956 53.9985 53.3239C54.0157 52.4774 54.281 51.4634 54.7816 50.841C55.3892 50.085 55.5198 49.3653 55.4919 48.4758C55.4384 46.6901 56.1766 45.3932 57.6743 44.5535C57.8882 44.4335 58.0958 44.0714 58.1065 43.8134C58.1535 42.684 58.1172 41.5523 58.13 40.4207C58.1428 39.298 58.759 38.5783 59.6919 38.5602C60.6525 38.5421 61.3093 39.2845 61.3265 40.441C61.3436 41.5433 61.3521 42.6478 61.32 43.75C61.3072 44.2095 61.4377 44.4471 61.8442 44.6418C62.8734 45.1352 63.5773 45.9952 63.8126 47.1631C63.9602 47.8987 63.8854 48.6818 63.9538 49.44C63.9795 49.7229 64.0544 50.0783 64.2341 50.2525C65.1734 51.1624 65.5071 52.2827 65.5007 53.5977C65.4793 57.6151 65.4943 61.6302 65.4943 65.6476C65.4943 65.9487 65.4943 66.2474 65.4943 66.6073C68.4533 66.6073 71.3031 66.6118 74.1551 66.6073C77.0628 66.6028 78.7958 64.7763 78.7958 61.7117C78.7979 49.0394 78.7958 36.3671 78.7958 23.6924C78.7958 23.3937 78.7958 23.0972 78.7958 22.8007H3.20587C3.20587 23.1447 3.20587 23.448 3.20587 23.7513C3.20587 36.3671 3.20587 48.9828 3.20587 61.6008C3.20587 61.8837 3.19945 62.1667 3.21871 62.4496C3.3535 64.4956 4.89183 66.424 6.78532 66.5281C9.36132 66.6707 11.948 66.5643 14.6417 66.5643V66.562ZM3.21657 19.2948H78.7851C78.7851 15.3272 78.7851 11.423 78.783 7.52102C78.783 7.38069 78.7551 7.24037 78.7295 7.1023C78.2973 4.76882 76.6113 3.39498 74.1509 3.39498C52.0494 3.39498 29.9501 3.39498 7.84867 3.39498C7.63472 3.39498 7.42076 3.39498 7.20895 3.4063C5.11862 3.50815 3.28289 5.3007 3.23796 7.52328C3.16094 11.423 3.21657 15.3272 3.21657 19.2971V19.2948ZM39.4005 51.9478C39.4005 49.2069 39.394 46.4954 39.4047 43.7862C39.409 42.6206 40.0552 41.8986 41.0329 41.9167C41.9743 41.9326 42.5905 42.641 42.5991 43.7681C42.6119 45.8028 42.6033 47.8398 42.6033 49.8746C42.6033 50.5739 42.6033 51.2755 42.6033 52.0949C43.2024 51.8957 43.8357 52.4095 44.1759 51.52C45.6158 47.7538 47.0921 44.0012 48.547 40.2419C48.9685 39.1532 48.7545 38.2026 47.9501 37.3901C47.274 36.7066 46.5743 36.0457 45.9581 35.3056C44.2701 33.2776 42.6226 31.2135 40.9388 29.1403C40.9302 29.1516 40.834 29.2421 40.7633 29.353C38.8977 32.2704 36.6469 34.8303 34.2335 37.2407C33.1744 38.2977 33.0118 39.0876 33.5659 40.5021C34.9459 44.0216 36.3645 47.523 37.6888 51.0651C38.0312 51.9794 38.4826 52.2442 39.4026 51.9523L39.4005 51.9478ZM46.2791 66.5779V65.745C46.2791 62.8343 46.2791 59.926 46.2791 57.0153C46.2791 55.7501 46.0052 55.4468 44.8327 55.4446C42.2739 55.4378 39.715 55.4378 37.1561 55.4446C36.0157 55.4468 35.7269 55.7547 35.7247 56.9452C35.7205 59.9124 35.7226 62.8773 35.7247 65.8446C35.7247 66.0867 35.7547 66.3266 35.7718 66.5801H46.2769L46.2791 66.5779ZM24.5242 66.5665C24.5242 65.5684 24.5242 64.6676 24.5242 63.7646C24.5242 58.9029 24.5242 54.0391 24.5242 49.1775C24.5242 48.6773 24.5649 48.2065 23.8588 48.2155C22.0723 48.2404 20.2837 48.2042 18.4993 48.2495C18.2789 48.254 17.9109 48.5731 17.881 48.7859C17.7975 49.4128 17.851 50.0601 17.851 50.755C18.6084 50.755 19.246 50.7459 19.8836 50.755C20.994 50.7731 21.7129 51.4272 21.7257 52.4163C21.7407 53.437 20.9983 54.1251 19.8493 54.1432C19.2139 54.1522 18.5785 54.1432 17.9131 54.1432V56.2368C18.6747 56.2368 19.3658 56.2119 20.0569 56.2435C21.0389 56.2865 21.7172 56.9927 21.7257 57.9297C21.7343 58.8962 21.0261 59.6 19.9991 59.6249C19.3145 59.6408 18.6277 59.6272 17.9109 59.6272V61.7593C18.6148 61.7593 19.2503 61.7479 19.8879 61.7615C21.009 61.7864 21.7172 62.436 21.7279 63.4273C21.7407 64.4481 21.0068 65.1248 19.8472 65.1474C19.2139 65.1588 18.5785 65.1474 17.9045 65.1474V66.5575H24.5242V66.5665ZM62.2914 66.562C62.2914 62.1033 62.2871 57.7509 62.2978 53.3985C62.2978 52.878 62.0432 52.801 61.6388 52.8033C60.4107 52.8169 59.1826 52.8463 57.9567 52.792C57.2956 52.7626 57.1522 53.0228 57.1565 53.6724C57.18 57.7441 57.1672 61.8181 57.1715 65.8898C57.1715 66.1071 57.2036 66.3244 57.2228 66.562H62.2914ZM60.8258 49.3721C60.7124 48.7836 60.7659 47.9937 60.4749 47.8059C60.0834 47.5524 59.3046 47.5705 58.9216 47.8398C58.6413 48.0367 58.7312 48.8244 58.652 49.3721H60.8258Z" fill="url(#paint0_linear_2008_32416)"/>
<defs>
<linearGradient id="paint0_linear_2008_32416" x1="61.5006" y1="1.41369e-06" x2="4.82544" y2="95.0354" gradientUnits="userSpaceOnUse">
<stop offset="0.445833" stop-color="#0A7CFF"/>
<stop offset="1" stop-color="white"/>
</linearGradient>
</defs>
</svg>
