<svg width="84" height="94" viewBox="0 0 84 94" fill="none" xmlns="http://www.w3.org/2000/svg">
<path d="M35.3333 53.5705C35.3333 51.9238 36.0709 51.1292 36.8846 49.2317C37.0923 48.7474 38.6246 43.7028 38.6246 43.7028H45.7195C45.7195 43.7028 46.9513 48.5251 47.1848 48.9176C48.1641 50.5697 49.0108 51.773 49.0108 53.5705C49.0108 57.3477 45.9489 60.4092 42.1721 60.4092C38.3949 60.4092 35.3333 57.3472 35.3333 53.5705Z" stroke="white" stroke-width="0.826433" stroke-miterlimit="10" stroke-linecap="round" stroke-linejoin="round"/>
<path d="M42.1721 43.8719V48.8057V43.8719Z" fill="white"/>
<path d="M42.1721 43.8719V48.8057" stroke="white" stroke-width="0.826433" stroke-miterlimit="10" stroke-linecap="round" stroke-linejoin="round"/>
<path d="M39.7052 48.8057H44.639H39.7052Z" fill="white"/>
<path d="M39.7052 48.8057H44.639" stroke="white" stroke-width="0.826433" stroke-miterlimit="10" stroke-linecap="round" stroke-linejoin="round"/>
<path d="M38.8002 39.0918C38.8002 37.753 40.3089 36.6675 42.17 36.6675C44.0311 36.6675 45.5398 37.753 45.5398 39.0918H38.8002Z" fill="white" stroke="white" stroke-width="0.700815" stroke-miterlimit="10" stroke-linecap="round" stroke-linejoin="round"/>
<path d="M46.5 0.5C46.5 1.83882 43.8611 2.00003 42 2.00003C40.1389 2.00003 38 1.83885 38 0.50003L46.5 0.5Z" fill="white" stroke="white" stroke-width="0.700815" stroke-miterlimit="10" stroke-linecap="round" stroke-linejoin="round"/>
<path d="M45.4819 40.6657L38.8622 42.0996L45.4819 40.6657Z" fill="white"/>
<path d="M45.4819 40.6657L38.8622 42.0996" stroke="white" stroke-width="0.81197" stroke-miterlimit="10" stroke-linecap="round" stroke-linejoin="round"/>
<path d="M41.263 40.2155L38.8746 40.7031L41.263 40.2155Z" fill="white"/>
<path d="M41.263 40.2155L38.8746 40.7031" stroke="white" stroke-width="0.826433" stroke-miterlimit="10" stroke-linecap="round" stroke-linejoin="round"/>
<path d="M45.4695 42.0622L43.0812 42.5498L45.4695 42.0622Z" fill="white"/>
<path d="M45.4695 42.0622L43.0812 42.5498" stroke="white" stroke-width="0.826433" stroke-miterlimit="10" stroke-linecap="round" stroke-linejoin="round"/>
<g filter="url(#filter0_dd_2008_36916)">
<circle cx="42" cy="52.4004" r="8" fill="#D9D9D9" fill-opacity="0.01"/>
</g>
<path d="M42.1334 36.4043L42.1334 2.00016" stroke="#FFFCFC" stroke-width="0.266667"/>
<defs>
<filter id="filter0_dd_2008_36916" x="0.399998" y="10.8004" width="83.2" height="83.2" filterUnits="userSpaceOnUse" color-interpolation-filters="sRGB">
<feFlood flood-opacity="0" result="BackgroundImageFix"/>
<feColorMatrix in="SourceAlpha" type="matrix" values="0 0 0 0 0 0 0 0 0 0 0 0 0 0 0 0 0 0 127 0" result="hardAlpha"/>
<feOffset/>
<feGaussianBlur stdDeviation="2.4"/>
<feColorMatrix type="matrix" values="0 0 0 0 1 0 0 0 0 1 0 0 0 0 1 0 0 0 1 0"/>
<feBlend mode="normal" in2="BackgroundImageFix" result="effect1_dropShadow_2008_36916"/>
<feColorMatrix in="SourceAlpha" type="matrix" values="0 0 0 0 0 0 0 0 0 0 0 0 0 0 0 0 0 0 127 0" result="hardAlpha"/>
<feOffset/>
<feGaussianBlur stdDeviation="16.8"/>
<feColorMatrix type="matrix" values="0 0 0 0 1 0 0 0 0 1 0 0 0 0 1 0 0 0 1 0"/>
<feBlend mode="normal" in2="effect1_dropShadow_2008_36916" result="effect2_dropShadow_2008_36916"/>
<feBlend mode="normal" in="SourceGraphic" in2="effect2_dropShadow_2008_36916" result="shape"/>
</filter>
</defs>
</svg>
