<svg width="70" height="70" viewBox="0 0 70 70" fill="none" xmlns="http://www.w3.org/2000/svg">
<path d="M58.1055 0C58.8452 0.402865 59.0808 1.01901 59.0772 1.85938C59.0498 7.41927 59.0626 12.9773 59.0626 18.5372C59.0626 18.7195 59.0717 18.9036 59.0534 19.0841C58.984 19.8297 58.4233 20.3638 57.7091 20.3711C56.9676 20.3784 56.3722 19.8279 56.3374 19.0458C56.3064 18.3185 56.3265 17.5875 56.3265 16.8583C56.3265 14.649 56.3265 12.4396 56.3265 10.1737H13.7219V13.9362H14.5347C24.469 13.9362 34.4014 13.9362 44.3356 13.9362C45.8005 13.9362 46.2114 14.3427 46.2114 15.7938C46.2114 22.0372 46.2114 28.2789 46.2114 34.5224C46.2114 35.9315 45.7804 36.369 44.3849 36.369C34.4507 36.369 24.5183 36.369 14.584 36.369C14.3137 36.369 14.0416 36.369 13.7219 36.369V67.2255H56.2936V62.6427H55.4078C45.5192 62.6427 35.6324 62.6427 25.7438 62.6427C24.153 62.6427 23.7913 62.2745 23.7913 60.6594C23.7913 54.4396 23.7913 48.2198 23.7913 42C23.7913 40.6602 24.2498 40.2081 25.6087 40.2081C35.5429 40.2081 45.4753 40.2081 55.4096 40.2081H56.3301C56.3301 39.9401 56.3301 39.6995 56.3301 39.4607C56.3301 36.8174 56.3265 34.1742 56.332 31.5328C56.332 30.7161 56.6808 30.2021 57.3347 30.0089C58.237 29.7409 59.0552 30.4227 59.0607 31.4799C59.0717 34.1232 59.0644 36.7664 59.0644 39.4078C59.0644 39.6521 59.0644 39.8964 59.0644 40.2099C59.7603 40.2099 60.3922 40.2099 61.0242 40.2099C63.3932 40.2099 65.7639 40.2354 68.1329 40.1953C68.9676 40.1807 69.5886 40.4286 70.0032 41.156V61.6638C69.6342 62.4367 69.0132 62.6682 68.1767 62.6591C65.4059 62.6245 62.6352 62.6464 59.8644 62.6464C59.6215 62.6464 59.3785 62.6464 59.0644 62.6464C59.0644 64.5312 59.0315 66.3432 59.079 68.1516C59.1009 68.9919 58.8416 69.6008 58.1073 70.0036H11.8936C11.1539 69.6008 10.9201 68.9865 10.9219 68.1461C10.9438 57.8284 10.9365 47.5107 10.9365 37.193V36.3708C7.78767 36.3708 4.73744 36.3727 1.68904 36.3708C0.479909 36.3708 0.00136986 35.8841 0.00136986 34.6628C-0.000456621 28.3081 -0.000456621 21.9534 0.00136986 15.5987C0.00136986 14.4247 0.485388 13.9435 1.66347 13.9417C4.21507 13.938 6.76484 13.9417 9.31644 13.9417C9.83516 13.9417 10.3521 13.9417 10.9365 13.9417V13.1396C10.9365 9.38073 10.9566 5.6237 10.9219 1.86484C10.9146 1.02448 11.1521 0.408333 11.8936 0.00729167H58.1055V0ZM2.76484 33.5854H43.4242V16.707H2.76484V33.5854ZM26.5548 59.8573H67.2105V42.9789H26.5548V59.8573ZM45.4936 2.77266H13.7183V7.33359H45.4936V2.77266ZM56.2991 2.78359H48.3174V7.34818H56.2991V2.78359Z" fill="url(#paint0_linear_2008_32379)"/>
<defs>
<linearGradient id="paint0_linear_2008_32379" x1="52.5024" y1="1.41372e-06" x2="-7.98334" y2="86.5831" gradientUnits="userSpaceOnUse">
<stop offset="0.445833" stop-color="#0A7CFF"/>
<stop offset="1" stop-color="white"/>
</linearGradient>
</defs>
</svg>
