<svg width="72" height="82" viewBox="0 0 72 82" fill="none" xmlns="http://www.w3.org/2000/svg">
<g clip-path="url(#clip0_2008_32396)">
<path d="M48.3197 82H23.6798C22.673 81.3978 22.346 80.7871 22.5747 79.9479C22.7863 79.1791 23.4276 78.8011 24.537 78.799C25.593 78.799 26.6489 78.799 27.7391 78.799C28.2885 75.8094 28.8228 72.9138 29.3765 69.8986C28.9404 69.8986 28.6283 69.8986 28.3162 69.8986C21.9997 69.8986 15.6832 69.9029 9.36662 69.8922C8.62275 69.8922 7.86391 69.873 7.14141 69.7235C2.83205 68.8416 0.0104509 65.3267 0.00617576 60.8444C-0.00451213 49.7467 -0.000236972 38.6489 0.00403818 27.5511C0.00403818 22.0247 3.76404 18.2664 9.28753 18.2578C10.025 18.2578 10.7603 18.2578 11.5512 18.2578C11.5512 17.8371 11.5512 17.5211 11.5512 17.2051C11.5512 13.1499 11.5405 9.09474 11.5555 5.03958C11.5641 2.60307 12.8915 0.834948 15.1637 0.158021C15.2856 0.121719 15.3989 0.0533854 15.5164 0C29.1713 0 42.824 0 56.4788 0C59.6809 1.3026 60.4462 2.46 60.4462 6.00052C60.4462 9.78875 60.4462 13.577 60.4462 17.3652C60.4462 17.6449 60.4462 17.9268 60.4462 18.2578C61.3333 18.2578 62.1006 18.2557 62.8702 18.2578C68.1927 18.2813 71.9869 22.0674 71.9912 27.391C71.9998 38.5144 71.9976 49.6399 71.9848 60.7633C71.9848 61.5299 71.9207 62.3157 71.7454 63.061C70.7707 67.2251 67.3227 69.8794 62.8723 69.8901C56.4767 69.9071 50.0789 69.8943 43.6833 69.8943C43.3712 69.8943 43.0591 69.8943 42.6209 69.8943C43.1809 72.9309 43.7196 75.8479 44.2626 78.7947C45.5173 78.7947 46.6887 78.7712 47.858 78.8011C48.9011 78.8268 49.5467 79.5848 49.4611 80.5778C49.3992 81.3188 48.884 81.6733 48.3175 81.9936L48.3197 82ZM14.8003 11.5099V58.3011H57.1864V11.5099H14.8003ZM68.7271 61.6559H3.21468C3.31514 62.0872 3.37072 62.4268 3.47333 62.7556C4.23858 65.2199 6.33982 66.6912 9.1379 66.6933C27.0508 66.6976 44.9637 66.6955 62.8766 66.6933C63.116 66.6933 63.3554 66.6848 63.5948 66.6656C66.3224 66.4648 68.3979 64.464 68.7271 61.6559ZM11.4892 58.3246V29.8489H3.24674V58.3246H11.4892ZM68.7421 58.3182V29.8424H60.491V58.3182H68.7421ZM14.7747 8.17865H57.1864C57.2163 8.04839 57.2377 7.995 57.2377 7.94375C57.2419 7.08958 57.2483 6.23755 57.2462 5.38339C57.2441 3.71562 56.7225 3.20312 55.0317 3.20312C42.3473 3.20312 29.6629 3.20312 16.9785 3.20312C16.7648 3.20312 16.551 3.19458 16.3394 3.20953C15.4865 3.27146 14.8431 3.80104 14.7918 4.65307C14.7234 5.81474 14.7747 6.98495 14.7747 8.17865ZM40.9985 78.7627C40.4726 75.9055 39.9682 73.1295 39.4316 70.3598C39.3974 70.1805 39.1067 69.9221 38.9336 69.9199C36.858 69.8901 34.7824 69.9007 32.6406 69.9007C32.0912 72.8711 31.5504 75.7923 30.9989 78.7648H41.0006L40.9985 78.7627ZM11.4914 26.5603V21.5165C6.56854 21.0552 3.29591 23.0817 3.31728 26.5603H11.4914ZM60.4825 26.5539H68.7079C68.5839 24.2348 66.8567 22.1037 64.5524 21.6638C63.24 21.414 61.8698 21.4716 60.4846 21.3883V26.5539H60.4825Z" fill="url(#paint0_linear_2008_32396)"/>
<path d="M16.7693 38.5015C16.7693 34.314 16.7672 30.1264 16.7693 25.9389C16.7714 23.2632 18.2549 21.7748 20.9141 21.7706C23.2055 21.7663 25.497 21.762 27.7885 21.7706C30.1484 21.7812 31.7345 23.2867 31.7409 25.6527C31.7665 34.2414 31.7665 42.83 31.7409 51.4187C31.7345 53.7869 30.1655 55.2881 27.7949 55.303C25.4243 55.318 23.0516 55.3222 20.6811 55.303C18.3169 55.2838 16.78 53.7484 16.7736 51.3845C16.7586 47.0902 16.7693 42.7959 16.7693 38.5015ZM28.5559 38.6019C28.5559 34.4165 28.5495 30.2289 28.5623 26.0435C28.5644 25.3517 28.4319 24.9438 27.5961 24.9587C25.3602 24.9993 23.12 24.9908 20.8841 24.963C20.1787 24.9545 19.9586 25.2385 19.9607 25.9154C19.9735 34.3418 19.9757 42.7681 19.9607 51.1923C19.9607 51.9034 20.245 52.1212 20.9141 52.1148C23.0709 52.0913 25.2298 52.1084 27.3866 52.1063C28.4875 52.1063 28.5538 52.038 28.5559 50.9233C28.558 46.8169 28.5559 42.7105 28.5559 38.604V38.6019Z" fill="white"/>
<path d="M44.7886 21.7704C46.9198 21.7704 49.0531 21.7619 51.1843 21.7725C53.4929 21.7853 55.0618 23.3015 55.0918 25.6141C55.1281 28.3069 55.126 31.0018 55.0918 33.6967C55.064 35.9773 53.5613 37.5255 51.2719 37.549C46.9284 37.596 42.5848 37.5981 38.2412 37.549C35.8921 37.5234 34.4064 35.9111 34.4 33.5451C34.3936 30.957 34.3936 28.371 34.4 25.7828C34.4064 23.3399 35.9562 21.7811 38.3909 21.7704C40.522 21.7619 42.6553 21.7704 44.7865 21.7704H44.7886ZM37.6 29.3404C38.3032 28.766 38.859 28.2813 39.4468 27.8371C40.8854 26.7459 42.6853 26.763 44.1003 27.8756C44.6027 28.2706 45.12 28.6593 45.5625 29.1162C46.1417 29.7141 46.6141 29.6394 47.1827 29.0991C48.4311 27.9076 49.8739 27.6876 51.46 28.356C51.5755 28.4051 51.6994 28.4308 51.9004 28.4927C51.9004 27.504 51.9046 26.5729 51.9004 25.644C51.8961 25.1294 51.5947 24.9671 51.118 24.9693C46.8835 24.9757 42.6489 24.9757 38.4144 24.9693C37.8373 24.9693 37.5936 25.2191 37.6021 25.7893C37.6171 26.9082 37.6064 28.0272 37.6064 29.3404H37.6ZM44.7181 34.363C46.7937 34.363 48.8714 34.3822 50.947 34.3437C51.2548 34.3373 51.802 34.0853 51.817 33.9102C51.8683 33.3038 52.2338 32.5906 51.5049 32.0951C50.4376 31.3705 49.5711 31.278 48.9056 31.8175C47.2725 33.1479 45.4342 33.1479 43.8118 31.8154C43.3586 31.4438 42.8948 31.083 42.4779 30.673C41.9863 30.1903 41.5716 30.169 41.0415 30.6452C40.1116 31.4801 39.1134 32.2403 38.1771 33.071C37.9334 33.2867 37.8116 33.6433 37.6342 33.9337C37.9719 34.0768 38.3075 34.3395 38.6495 34.3459C40.6717 34.3843 42.696 34.3651 44.7181 34.3651V34.363Z" fill="white"/>
<path d="M44.7459 55.3068C42.6404 55.3068 40.5349 55.3154 38.4315 55.3047C35.9327 55.2919 34.4064 53.7523 34.4 51.2538C34.3957 48.6678 34.3915 46.0797 34.4 43.4937C34.4086 41.1405 35.9455 39.5517 38.2819 39.5411C42.5976 39.5176 46.9155 39.5176 51.2313 39.5411C53.51 39.5539 55.0554 41.0743 55.0875 43.3485C55.126 46.069 55.126 48.7895 55.0875 51.5101C55.0533 53.7821 53.5014 55.2833 51.2185 55.3047C49.0595 55.3261 46.9027 55.309 44.7438 55.3111L44.7459 55.3068ZM49.7564 52.1058C50.1882 52.1058 50.5067 52.1058 50.8252 52.1058C51.8213 52.0973 51.9004 52.0226 51.9004 50.9933C51.9046 48.5653 51.8854 46.1352 51.9111 43.7073C51.9196 42.9876 51.6588 42.7186 50.9278 42.7228C46.8215 42.7463 42.7152 42.7463 38.6111 42.7228C37.8501 42.7186 37.5722 42.9833 37.585 43.75C37.6192 45.9644 37.5978 48.1788 37.5978 50.3954C37.5978 52.2062 37.6214 52.2276 39.434 52.0952C39.5088 52.0888 39.5815 52.0525 39.7354 52.0055C39.7974 50.3185 39.5088 48.5354 40.8576 47.1154C42.2236 45.6761 43.9614 45.7743 45.6993 45.8192C46.721 45.8448 47.6145 46.2057 48.3926 46.8805C49.9958 48.2749 49.7585 50.1754 49.7564 52.1058ZM46.5522 52.076C46.5522 51.3179 46.5735 50.6303 46.5457 49.9448C46.5201 49.3383 46.1353 48.9625 45.5603 49.0373C44.6903 49.1526 43.4826 48.4543 43.0487 49.7185C42.8093 50.4167 43.0059 51.2666 43.0059 52.076H46.5543H46.5522Z" fill="white"/>
<path d="M39.1198 18.8278C34.4556 18.8278 29.7914 18.832 25.1272 18.8256C23.9024 18.8256 23.2162 18.2662 23.1799 17.2924C23.15 16.4575 23.6865 15.7912 24.5137 15.6716C24.828 15.6268 25.1507 15.6289 25.4714 15.6289C34.5881 15.6289 43.7028 15.6289 52.8195 15.6289C53.138 15.6289 53.4629 15.6289 53.775 15.6759C54.5381 15.7933 55.0576 16.3955 55.0854 17.1579C55.1153 17.9651 54.6194 18.6206 53.8285 18.7658C53.4907 18.8278 53.1402 18.8256 52.7939 18.8256C48.2366 18.8299 43.6771 18.8278 39.1198 18.8256V18.8278Z" fill="white"/>
<path d="M16.7778 17.2238C16.7778 16.3355 17.4533 15.6522 18.3383 15.6436C19.2147 15.6351 19.9329 16.3206 19.9586 17.1833C19.9842 18.0673 19.2339 18.8211 18.3383 18.8105C17.464 18.7998 16.7778 18.1036 16.7778 17.2217V17.2238Z" fill="white"/>
<path d="M53.0568 4.15106C53.4287 4.15106 53.8049 4.1233 54.1747 4.15747C54.9678 4.22794 55.5556 4.8408 55.6176 5.6181C55.6753 6.35268 55.2157 7.12784 54.4633 7.21966C53.4971 7.33497 52.4968 7.34138 51.5306 7.22606C50.7332 7.12997 50.3057 6.3719 50.3784 5.5583C50.4468 4.78101 51.0325 4.21086 51.8576 4.1532C52.2552 4.12544 52.6571 4.14893 53.0568 4.14893V4.1532V4.15106Z" fill="white"/>
<path d="M24.2102 35.0699C23.5988 35.0699 22.9875 35.0955 22.3783 35.0635C21.4784 35.0144 20.8136 34.314 20.8179 33.4662C20.8221 32.6184 21.4869 31.9095 22.3911 31.8839C23.6373 31.8497 24.8878 31.8476 26.134 31.8839C27.051 31.9116 27.6859 32.6056 27.6816 33.4769C27.6773 34.346 27.0382 35.0165 26.1212 35.0614C25.4863 35.0934 24.8472 35.0678 24.2102 35.0678V35.0699Z" fill="white"/>
<path d="M24.3149 42.6037C24.8728 42.6037 25.4308 42.5909 25.9887 42.6059C27.0147 42.6358 27.6923 43.2913 27.6816 44.2224C27.6709 45.1193 27.0061 45.777 26.0271 45.7962C24.8322 45.8197 23.6373 45.8218 22.4424 45.7962C21.4933 45.7727 20.8029 45.0595 20.8157 44.184C20.8285 43.3063 21.5211 42.6507 22.483 42.6059C22.5365 42.6037 22.5899 42.6059 22.6434 42.6059C23.2013 42.6059 23.7592 42.6059 24.3171 42.6059L24.3149 42.6037Z" fill="white"/>
<path d="M24.3064 26.5263C24.9199 26.5263 25.5334 26.4985 26.1447 26.5327C27.0468 26.5839 27.6581 27.216 27.6816 28.0595C27.7051 28.9073 27.1365 29.6205 26.2388 29.6675C24.937 29.7337 23.6266 29.7337 22.3249 29.676C21.3929 29.6354 20.7751 28.8902 20.8179 28.0381C20.8585 27.2032 21.4848 26.5989 22.3868 26.5263C22.4403 26.522 22.4937 26.5199 22.5472 26.5199C23.1329 26.5199 23.7207 26.5199 24.3064 26.5199C24.3064 26.522 24.3064 26.5241 24.3064 26.5263Z" fill="white"/>
<path d="M24.2102 40.4276C23.5967 40.4276 22.9811 40.4661 22.3719 40.4191C21.4271 40.3443 20.8008 39.6717 20.8157 38.8154C20.8285 37.9548 21.4784 37.2886 22.4189 37.2629C23.6437 37.2288 24.8728 37.2288 26.0977 37.2629C27.0425 37.2886 27.6752 37.9505 27.6838 38.8239C27.6923 39.6717 27.113 40.2974 26.2088 40.4191C26.1297 40.4298 26.0506 40.4426 25.9694 40.4426C25.3837 40.4426 24.7959 40.4426 24.2102 40.4426C24.2102 40.4383 24.2102 40.4319 24.2102 40.4276Z" fill="white"/>
<path d="M24.285 47.9853C24.8985 47.9853 25.512 47.9597 26.1233 47.9917C27.0297 48.0408 27.6474 48.6579 27.6795 49.4993C27.7158 50.377 27.1237 51.0923 26.1789 51.1372C24.9028 51.197 23.6202 51.197 22.3441 51.1393C21.4057 51.0966 20.7858 50.3727 20.8157 49.5185C20.8456 48.6579 21.4933 48.0301 22.4446 47.9896C23.0559 47.9618 23.6715 47.9853 24.2829 47.9874L24.285 47.9853Z" fill="white"/>
</g>
<defs>
<linearGradient id="paint0_linear_2008_32396" x1="53.9971" y1="1.65599e-06" x2="-19.5312" y2="92.414" gradientUnits="userSpaceOnUse">
<stop offset="0.445833" stop-color="#0A7CFF"/>
<stop offset="1" stop-color="white"/>
</linearGradient>
<clipPath id="clip0_2008_32396">
<rect width="72" height="82" fill="white"/>
</clipPath>
</defs>
</svg>
